<svg width="21" height="20" viewBox="0 0 21 20" fill="none" xmlns="http://www.w3.org/2000/svg">
<path fill-rule="evenodd" clip-rule="evenodd" d="M19.9017 10.2273C19.9017 9.51819 19.8378 8.83637 19.7193 8.18182H10.275V12.05H15.6718C15.4393 13.3 14.7328 14.3591 13.6708 15.0682V17.5773H16.9116C18.8077 15.8364 19.9017 13.2727 19.9017 10.2273Z" fill="#4285F4"/>
<path fill-rule="evenodd" clip-rule="evenodd" d="M10.275 20C12.9825 20 15.2524 19.1045 16.9116 17.5772L13.6708 15.0681C12.7728 15.6681 11.6242 16.0227 10.275 16.0227C7.66322 16.0227 5.45255 14.2636 4.664 11.9H1.31381V14.4909C2.96384 17.7591 6.35505 20 10.275 20Z" fill="#34A853"/>
<path fill-rule="evenodd" clip-rule="evenodd" d="M4.664 11.8999C4.46345 11.2999 4.3495 10.659 4.3495 9.99994C4.3495 9.34085 4.46345 8.69994 4.664 8.09994V5.50903H1.31381C0.63466 6.85903 0.247223 8.38631 0.247223 9.99994C0.247223 11.6136 0.63466 13.1409 1.31381 14.4909L4.664 11.8999Z" fill="#FBBC05"/>
<path fill-rule="evenodd" clip-rule="evenodd" d="M10.275 3.97727C11.7473 3.97727 13.0691 4.48182 14.1083 5.47273L16.9845 2.60455C15.2479 0.990909 12.9779 0 10.275 0C6.35505 0 2.96384 2.24091 1.31381 5.50909L4.664 8.1C5.45255 5.73636 7.66322 3.97727 10.275 3.97727Z" fill="#EA4335"/>
</svg>
